<?xml version="1.0" encoding="utf-8"?>
<!-- Generator: Adobe Illustrator 21.0.2, SVG Export Plug-In . SVG Version: 6.00 Build 0)  -->
<svg version="1.1" id="Layer_1" xmlns="http://www.w3.org/2000/svg" xmlns:xlink="http://www.w3.org/1999/xlink" x="0px" y="0px"
	 viewBox="0 0 187 27.9" style="enable-background:new 0 0 187 27.9;" xml:space="preserve">
<style type="text/css">
	.st0{fill:none;stroke:#737474;stroke-width:0.5;stroke-miterlimit:10;}
	.st1{fill:none;stroke:#7F7F7F;stroke-width:0.5;stroke-miterlimit:10;}
	.st2{fill:#737474;}
	.st3{fill:none;stroke:#000000;stroke-width:0.5;stroke-miterlimit:10;}
	.st4{fill:#272727;}
	.st5{fill:#69C9CA;}
	.st6{fill:#010101;}
	.st7{fill:#FFFFFF;stroke:#737474;stroke-miterlimit:10;}
	.st8{fill:#FFFFFF;stroke:#010101;stroke-miterlimit:10;}
	.st9{fill:#FFFFFF;stroke:#69C9CA;stroke-miterlimit:10;}
	.st10{fill:#FFFFFF;}
	.st11{fill:none;stroke:#69C9CA;stroke-miterlimit:10;}
	.st12{font-family:'PoiretOne-Regular';}
	.st13{font-size:17.7091px;}
	.st14{fill:none;stroke:#69C9CA;stroke-width:0.75;stroke-miterlimit:10;}
</style>
<text transform="matrix(1 0 0 1 27.6496 18.5481)" class="st10 st12 st13">Natasha Springer</text>
<rect x="2.8" y="8.3" transform="matrix(0.7071 -0.7071 0.7071 0.7071 -7.0531 9.2021)" class="st14" width="9.6" height="9.6"/>
<rect x="8.6" y="4.6" transform="matrix(0.7071 -0.7071 0.7071 0.7071 -2.7427 12.1848)" class="st14" width="9.6" height="9.6"/>
<rect x="8.6" y="11.4" transform="matrix(0.7071 -0.7071 0.7071 0.7071 -7.52 14.1637)" class="st14" width="9.6" height="9.6"/>
<rect x="14.6" y="8.3" transform="matrix(0.7071 -0.7071 0.7071 0.7071 -3.5917 17.5585)" class="st14" width="9.6" height="9.6"/>
<rect x="162.6" y="8.2" transform="matrix(0.7071 -0.7071 0.7071 0.7071 39.8482 122.1946)" class="st14" width="9.6" height="9.6"/>
<rect x="168.4" y="4.5" transform="matrix(0.7071 -0.7071 0.7071 0.7071 44.1586 125.1773)" class="st14" width="9.6" height="9.6"/>
<rect x="168.4" y="11.3" transform="matrix(0.7071 -0.7071 0.7071 0.7071 39.3813 127.1562)" class="st14" width="9.6" height="9.6"/>
<rect x="174.5" y="8.2" transform="matrix(0.7071 -0.7071 0.7071 0.7071 43.3095 130.551)" class="st14" width="9.6" height="9.6"/>
</svg>
