<?xml version="1.0" encoding="utf-8"?>
<!-- Generator: Adobe Illustrator 21.0.2, SVG Export Plug-In . SVG Version: 6.00 Build 0)  -->
<svg version="1.1" id="Layer_1" xmlns="http://www.w3.org/2000/svg" xmlns:xlink="http://www.w3.org/1999/xlink" x="0px" y="0px"
	 viewBox="0 0 173.8 28.7" style="enable-background:new 0 0 173.8 28.7;" xml:space="preserve">
<style type="text/css">
	.st0{enable-background:new    ;}
	.st1{fill:#FFFFFF;}
	.st2{fill:none;stroke:#69C9CA;stroke-width:3;stroke-miterlimit:10;}
	.st3{font-family:'Quicksand-Light';}
	.st4{font-size:13.7068px;}
	.st5{fill:none;stroke:#69C9CA;stroke-miterlimit:10;}
</style>
<text transform="matrix(1 0 0 1 127.5296 213.4005)" class="st1 st3" style="font-size:52px;">Natasha Springer</text>
<rect x="568.9" y="178.8" transform="matrix(0.7071 -0.7071 0.7071 0.7071 32.4215 473.4916)" class="st2" width="37.7" height="37.7"/>
<rect x="591.6" y="164.2" transform="matrix(0.7071 -0.7071 0.7071 0.7071 49.3829 485.243)" class="st2" width="37.7" height="37.7"/>
<rect x="591.6" y="190.7" transform="matrix(0.7071 -0.7071 0.7071 0.7071 30.5834 493.0191)" class="st2" width="37.7" height="37.7"/>
<rect x="615.5" y="178.7" transform="matrix(0.7071 -0.7071 0.7071 0.7071 46.1158 506.4132)" class="st2" width="37.7" height="37.7"/>
<rect x="17.1" y="178.5" transform="matrix(0.7071 -0.7071 0.7071 0.7071 -128.9738 83.2328)" class="st2" width="37.7" height="37.7"/>
<rect x="39.8" y="163.9" transform="matrix(0.7071 -0.7071 0.7071 0.7071 -112.0124 94.9841)" class="st2" width="37.7" height="37.7"/>
<rect x="39.8" y="190.4" transform="matrix(0.7071 -0.7071 0.7071 0.7071 -130.8118 102.7603)" class="st2" width="37.7" height="37.7"/>
<rect x="63.7" y="178.4" transform="matrix(0.7071 -0.7071 0.7071 0.7071 -115.2795 116.1543)" class="st2" width="37.7" height="37.7"/>
<text transform="matrix(1 0 0 1 32.1548 18.9683)" class="st3 st4">Natasha Springer</text>
<rect x="148.5" y="9.8" transform="matrix(0.7071 -0.7071 0.7071 0.7071 34.4807 112.8557)" class="st5" width="9.9" height="9.9"/>
<rect x="154.5" y="6" transform="matrix(0.7071 -0.7071 0.7071 0.7071 38.9516 115.9532)" class="st5" width="9.9" height="9.9"/>
<rect x="154.5" y="13" transform="matrix(0.7071 -0.7071 0.7071 0.7071 33.9962 118.003)" class="st5" width="9.9" height="9.9"/>
<rect x="160.8" y="9.8" transform="matrix(0.7071 -0.7071 0.7071 0.7071 38.0904 121.5335)" class="st5" width="9.9" height="9.9"/>
<rect x="3.1" y="9.8" transform="matrix(0.7071 -0.7071 0.7071 0.7071 -8.0618 9.9866)" class="st5" width="9.9" height="9.9"/>
<rect x="9" y="5.9" transform="matrix(0.7071 -0.7071 0.7071 0.7071 -3.5909 13.0842)" class="st5" width="9.9" height="9.9"/>
<rect x="9" y="12.9" transform="matrix(0.7071 -0.7071 0.7071 0.7071 -8.5463 15.1339)" class="st5" width="9.9" height="9.9"/>
<rect x="15.3" y="9.7" transform="matrix(0.7071 -0.7071 0.7071 0.7071 -4.4521 18.6645)" class="st5" width="9.9" height="9.9"/>
</svg>
