<?xml version="1.0" encoding="utf-8"?>
<!-- Generator: Adobe Illustrator 21.0.2, SVG Export Plug-In . SVG Version: 6.00 Build 0)  -->
<svg version="1.1" id="Layer_1" xmlns="http://www.w3.org/2000/svg" xmlns:xlink="http://www.w3.org/1999/xlink" x="0px" y="0px"
	 viewBox="0 0 346.6 46.9" style="enable-background:new 0 0 346.6 46.9;" xml:space="preserve">
<style type="text/css">
	.st0{fill:none;stroke:#737474;stroke-width:0.5;stroke-miterlimit:10;}
	.st1{fill:none;stroke:#7F7F7F;stroke-width:0.5;stroke-miterlimit:10;}
	.st2{fill:#737474;}
	.st3{fill:none;stroke:#000000;stroke-width:0.5;stroke-miterlimit:10;}
	.st4{fill:#272727;}
	.st5{fill:#69C9CA;}
	.st6{fill:#010101;}
	.st7{fill:#FFFFFF;stroke:#737474;stroke-miterlimit:10;}
	.st8{fill:#FFFFFF;stroke:#010101;stroke-miterlimit:10;}
	.st9{fill:#FFFFFF;stroke:#69C9CA;stroke-miterlimit:10;}
	.st10{fill:#FFFFFF;}
	.st11{font-family:'PoiretOne-Regular';}
	.st12{font-size:32px;}
	.st13{fill:none;stroke:#69C9CA;stroke-miterlimit:10;}
	.st14{fill:none;stroke:#69C9CA;stroke-width:0.75;stroke-miterlimit:10;}
</style>
<text transform="matrix(1 0 0 1 53.1682 33.2037)" class="st10 st11 st12">Natasha Springer</text>
<rect x="8.3" y="14.8" transform="matrix(0.7071 -0.7071 0.7071 0.7071 -11.5838 18.8025)" class="st13" width="17.3" height="17.3"/>
<rect x="18.7" y="8" transform="matrix(0.7071 -0.7071 0.7071 0.7071 -3.795 24.1922)" class="st13" width="17.3" height="17.3"/>
<rect x="18.7" y="20.3" transform="matrix(0.7071 -0.7071 0.7071 0.7071 -12.4276 27.7679)" class="st13" width="17.3" height="17.3"/>
<rect x="29.6" y="14.8" transform="matrix(0.7071 -0.7071 0.7071 0.7071 -5.3292 33.9024)" class="st13" width="17.3" height="17.3"/>
<rect x="297.1" y="14.5" transform="matrix(0.7071 -0.7071 0.7071 0.7071 73.1659 222.9777)" class="st13" width="17.3" height="17.3"/>
<rect x="307.5" y="7.8" transform="matrix(0.7071 -0.7071 0.7071 0.7071 80.9547 228.3674)" class="st13" width="17.3" height="17.3"/>
<rect x="307.5" y="20" transform="matrix(0.7071 -0.7071 0.7071 0.7071 72.3221 231.9432)" class="st13" width="17.3" height="17.3"/>
<rect x="318.5" y="14.5" transform="matrix(0.7071 -0.7071 0.7071 0.7071 79.4204 238.0776)" class="st13" width="17.3" height="17.3"/>
</svg>
