<?xml version="1.0" encoding="utf-8"?>
<!-- Generator: Adobe Illustrator 21.0.2, SVG Export Plug-In . SVG Version: 6.00 Build 0)  -->
<svg version="1.1" id="Layer_1" xmlns="http://www.w3.org/2000/svg" xmlns:xlink="http://www.w3.org/1999/xlink" x="0px" y="0px"
	 viewBox="0 0 187 27.9" style="enable-background:new 0 0 187 27.9;" xml:space="preserve">
<style type="text/css">
	.st0{font-family:'PoiretOne-Regular';}
	.st1{font-size:17.7091px;}
	.st2{fill:none;stroke:#69C9CA;stroke-width:0.75;stroke-miterlimit:10;}
</style>
<text transform="matrix(1 0 0 1 27.6496 18.5481)" class="st0 st1">Natasha Springer</text>
<rect x="2.8" y="8.3" transform="matrix(0.7071 -0.7071 0.7071 0.7071 -7.0356 9.1969)" class="st2" width="9.6" height="9.6"/>
<rect x="8.6" y="4.6" transform="matrix(0.7071 -0.7071 0.7071 0.7071 -2.6973 12.2009)" class="st2" width="9.6" height="9.6"/>
<rect x="8.6" y="11.3" transform="matrix(0.7071 -0.7071 0.7071 0.7071 -7.4875 14.2108)" class="st2" width="9.6" height="9.6"/>
<rect x="14.6" y="8.3" transform="matrix(0.7071 -0.7071 0.7071 0.7071 -3.5868 17.5481)" class="st2" width="9.6" height="9.6"/>
<rect x="162.6" y="8.2" transform="matrix(0.7071 -0.7071 0.7071 0.7071 39.8276 122.1891)" class="st2" width="9.6" height="9.6"/>
<rect x="168.4" y="4.5" transform="matrix(0.7071 -0.7071 0.7071 0.7071 44.1659 125.1931)" class="st2" width="9.6" height="9.6"/>
<rect x="168.4" y="11.3" transform="matrix(0.7071 -0.7071 0.7071 0.7071 39.3757 127.2029)" class="st2" width="9.6" height="9.6"/>
<rect x="174.5" y="8.2" transform="matrix(0.7071 -0.7071 0.7071 0.7071 43.347 130.5695)" class="st2" width="9.6" height="9.6"/>
</svg>
